<svg width="83" height="78" viewBox="0 0 83 78" fill="none" xmlns="http://www.w3.org/2000/svg">
<rect width="67.4045" height="68.0933" transform="translate(9.67358 4.24353)" fill="white"/>
<path d="M9.71936 6.22837C9.72874 6.25706 9.73813 6.28575 9.77231 12.2226C9.80648 18.1594 9.86516 30.0036 9.83645 37.7567C9.80774 45.5098 9.68986 48.8129 9.67504 50.7986C9.66021 52.7844 9.75201 53.3526 10.2656 55.2308C10.7792 57.109 11.7117 60.2799 12.7903 63.8456M12.8361 62.6096C12.9128 63.8239 13.0355 66.7606 13.566 68.5745C13.865 69.5965 15.6731 70.5386 17.6508 71.3914C18.7235 71.854 19.5701 72.0192 22.5777 72.1621C25.3353 72.2931 30.6 72.3646 35.9835 72.3268C41.367 72.2889 46.7115 72.0938 50.2616 71.7947C55.434 71.359 57.5522 70.6319 58.6667 70.5369C60.8879 70.5272 62.1434 70.9958 63.4879 71.4165C63.9673 71.5393 64.7097 71.7232 65.681 71.941M66.7802 71.8383C69.3763 71.8383 74.3274 71.6375 74.0477 71.1521C73.7053 70.5578 73.7173 68.3387 74.0302 63.2524C74.342 59.9595 74.9645 55.2216 75.5222 52.0362C76.0799 48.8509 76.554 47.3618 77.0781 45.4206C77.0781 45.3927 77.0781 45.3648 77.0678 39.6734C77.0575 33.982 77.0369 22.6278 76.9132 16.3282C76.7718 9.12051 76.192 7.83914 75.9138 7.14964C75.6607 6.52258 75.4139 5.99688 75.2241 5.71199C74.8096 5.08984 73.5999 6.77878 68.063 7.39903C63.9821 7.85618 56.3521 7.97977 52.2443 8.13545C48.1364 8.29113 47.7627 8.24862 45.2238 7.59379C42.6848 6.93896 37.992 5.67311 35.4686 5.00548C32.9452 4.33785 32.7334 4.30682 31.0523 4.27584C26.2276 4.18692 22.7531 4.27811 22.1333 4.59209C20.3421 5.49947 16.8362 5.76645 14.5895 5.93603C13.1609 6.03927 11.5075 6.01805 10.9723 6.00492C10.706 6.00614 10.4505 6.02335 10.1492 6.02291M65.8422 71.38H67.0094" stroke="white" stroke-width="1.71346" stroke-linecap="round"/>
<path d="M12.2021 12.427C12.605 13.0105 12.3056 14.0212 12.1426 14.5765C12.1398 14.5868 12.137 14.5972 12.1342 14.6075C12.0951 14.7432 12.0759 14.8646 12.0533 15.0139C12.0067 15.3234 11.9473 15.7115 11.6801 16.4382C11.639 16.5291 11.5927 16.6298 11.5409 16.7427C11.5305 16.9887 11.5199 17.2224 11.5049 17.4784C11.3543 20.1989 11.1171 23.2935 10.8789 26.4245C10.8841 26.464 10.8895 26.5039 10.895 26.5434C10.9994 27.3125 11.1392 28.2827 11.0238 28.9036C10.8775 29.7024 10.7277 30.2427 10.5978 30.7C10.4647 33.2237 10.411 35.7799 10.5658 38.306C10.6149 39.1025 10.6845 39.8928 10.7788 40.6801C10.8659 41.4087 10.9682 42.131 11.0848 42.8569C11.2366 43.2663 11.4053 43.656 11.5618 44.0165C11.7811 44.5195 11.9771 44.9729 12.0698 45.3526C12.2931 46.2677 12.2541 47.3462 12.2251 48.1465C12.2203 48.277 12.2158 48.4005 12.2128 48.5145C12.2628 48.7331 12.3134 48.952 12.3645 49.1713C12.4569 49.566 12.5495 49.9354 12.6474 50.3243C12.6146 50.3696 12.5803 50.4153 12.545 50.4618C12.1057 51.0424 12.201 51.6805 12.3684 52.665C12.4413 53.0919 12.5297 53.5927 12.5976 54.1761C12.6428 54.5588 12.478 54.7818 12.3453 54.9741C12.3062 55.0298 12.2696 55.0818 12.2418 55.1325C12.146 55.3041 12.3128 55.4412 12.509 55.5947C12.763 55.7905 13.0696 56.0281 12.9302 56.4565C12.489 57.8217 13.1148 58.25 13.576 58.547C13.7124 58.6365 13.8346 58.7118 13.9173 58.8078C14.1815 59.1072 14.1508 59.6489 14.0305 60.0993C13.9343 60.4568 14.2984 61.0109 14.6758 61.4318C14.8178 61.5892 14.895 61.8413 14.9856 62.151C15.0794 62.4719 15.1873 62.8539 15.3939 63.2649C15.4164 63.3095 15.4382 63.3535 15.4595 63.3969C15.5096 63.513 15.5225 63.8901 15.5521 64.013C15.8559 65.2453 15.9022 65.8731 15.9587 66.3903C15.9735 66.5431 15.9849 66.6848 15.9961 66.8264C16.0321 67.2722 16.0241 67.8151 15.9968 68.3521C15.9649 68.9964 15.9058 69.6353 15.8981 70.1311C15.7679 70.4893 15.6289 70.8404 15.4827 71.1855C15.4787 71.22 15.4354 71.3167 15.4301 71.3511C15.0447 72.2112 14.5212 73.1174 14.073 73.7782C13.7341 74.2851 13.0926 74.5545 12.2648 74.5604C11.4373 74.5633 10.4956 74.3038 9.623 73.8415C8.75127 73.3771 8.01074 72.7409 7.53615 72.0734C7.06264 71.4047 6.89773 70.7623 7.03947 70.2986C7.24217 69.6498 7.33393 69.1827 7.41717 68.6333L7.37247 68.7738C7.41342 68.4728 7.4493 68.1755 7.48091 67.8821C7.59849 66.7939 7.65475 65.7427 7.66113 64.9268C7.66249 64.7788 7.66047 64.6402 7.65567 64.5157L7.76406 65.2371C7.64939 64.718 7.50056 64.1304 7.33992 63.4814C7.31798 63.3924 7.29583 63.3013 7.27301 63.2082C6.81899 62.5405 6.37465 61.8074 6.14385 61.2621C5.95374 60.8161 5.98742 60.4308 6.02137 60.1154C6.04324 59.8922 6.06508 59.7004 6.01001 59.521C5.9801 59.4232 5.93366 59.2957 5.87815 59.1403C5.64963 58.5048 5.28012 57.4101 5.32039 56.3573C5.33621 55.884 5.44663 55.3352 5.55641 54.8073C5.71423 54.0597 5.8726 53.3651 5.74247 53.0512C5.51313 52.4981 5.53616 51.8101 5.56478 51.2236C5.58524 50.7277 5.61075 50.3157 5.49382 50.0303C5.47385 49.9836 5.44963 49.9416 5.42044 49.9048C5.18516 49.608 5.23051 49.3246 5.29768 48.9046C5.34442 48.6145 5.40052 48.2527 5.38223 47.7787C5.36128 47.2329 5.44975 46.8276 5.52563 46.4878C5.63248 46.01 5.71232 45.6461 5.42247 45.1592C5.10084 44.6213 4.86653 44.0353 4.88881 43.557C4.89888 43.3385 4.85985 43.0911 4.8196 42.8366C4.76623 42.4988 4.71087 42.1466 4.76174 41.8078C4.80382 41.5298 4.96768 41.2856 5.11283 41.07C5.15811 41.0027 5.20132 40.9383 5.23869 40.8764C5.21077 40.6625 5.18169 40.4479 5.1508 40.2349C5.11606 40.2039 5.07784 40.1715 5.03834 40.1377C4.84002 39.9672 4.59732 39.762 4.45562 39.4814C4.2315 39.0382 4.29189 38.6276 4.35575 38.1857C4.40554 37.842 4.45838 37.4886 4.38098 37.0967C4.32796 36.8275 4.21571 36.5281 4.10502 36.233C3.94061 35.7947 3.77861 35.3536 3.81723 35.0372C3.83165 34.9182 3.94076 34.8061 4.04917 34.6929C4.04985 34.6924 4.05053 34.6919 4.05121 34.6914C4.05858 34.6838 4.06574 34.6761 4.07307 34.6685C3.90094 33.9177 3.72188 33.1678 3.54066 32.42C3.50327 32.3565 3.46627 32.2924 3.42983 32.229C3.25174 31.9188 3.07969 31.62 2.85869 31.4354C2.61855 31.2296 2.43895 30.6858 2.25178 30.1028C2.12895 29.719 2.00432 29.3341 1.85487 29.0095C1.76773 28.8221 1.87628 28.6293 1.98865 28.4323C2.0936 28.2497 2.20121 28.0583 2.15559 27.8628C2.13272 27.765 2.07326 27.6623 2.00982 27.5529C1.95398 27.4567 1.89492 27.3551 1.85544 27.2473C1.81901 27.1495 1.86892 26.9081 1.93401 26.6077C1.97414 26.4206 2.02015 26.2143 2.05487 25.9907C1.93945 25.416 1.83085 24.843 1.73165 24.2674C1.61676 24.1535 1.4704 24.0547 1.28515 23.9788C1.15226 23.9245 0.994484 23.8804 0.833206 23.835C0.613742 23.7731 0.386973 23.7088 0.204244 23.6139C0.0614533 23.5397 0.00179529 23.4472 0.0567865 23.3811C0.0824337 23.3504 0.132216 23.3255 0.177239 23.3029C0.228812 23.2771 0.274684 23.2541 0.272259 23.2286C0.270422 23.2101 0.232372 23.1926 0.186269 23.1699C0.112663 23.1341 0.0176268 23.0873 0.0112491 23.0106C-0.0125389 22.7239 0.00590706 22.4079 0.0256038 22.0859C0.0474072 21.7257 0.0712929 21.3902 0.0383124 21.1064C0.00132036 20.7912 0.133864 20.352 0.271238 19.897C0.366975 19.5865 0.464734 19.2692 0.507672 18.9975C0.549637 18.7342 0.478704 18.453 0.411868 18.1762C0.331394 17.8495 0.257534 17.5219 0.39198 17.2542C0.419251 17.2003 0.572483 17.1393 0.7644 17.0647C0.900443 17.0114 1.05597 16.953 1.20071 16.879C1.22136 16.5255 1.2512 16.1918 1.29426 15.8294C1.27508 15.8151 1.25558 15.8004 1.23565 15.7855C1.23519 15.7853 1.23472 15.785 1.23425 15.7848C1.05339 15.6503 0.84651 15.4942 0.693769 15.32C0.463734 15.0915 0.348741 14.8431 0.610214 14.5775C0.721477 14.464 0.911376 14.4059 1.08227 14.3537C1.25012 14.3025 1.40022 14.2576 1.43966 14.1723C1.48463 14.073 1.39845 13.9422 1.30466 13.8012C1.17268 13.6059 1.02629 13.3785 1.20462 13.1916C1.2168 13.1788 1.23013 13.1651 1.24354 13.1508C1.37027 13.0191 1.55965 12.8071 1.91461 12.6284C2.07282 11.9877 2.2474 11.3492 2.43281 10.713C2.74217 9.65014 3.08192 8.59109 3.42649 7.53567C3.5959 7.01744 4.10889 6.57145 4.8771 6.29034C5.64736 5.99446 6.59593 5.98276 7.56234 5.99707C8.52779 6.1441 9.4277 6.47906 10.1062 6.93595C10.7828 7.3958 11.1742 7.93868 11.2179 8.46992C11.2882 9.3255 11.3608 10.1925 11.424 11.0462C11.439 11.0926 11.4533 11.1395 11.4664 11.1863C11.5647 11.5273 11.802 11.8605 12.0395 12.1986C12.0942 12.274 12.1491 12.3502 12.2021 12.427Z" fill="black"/>
<path d="M13.9151 0.29852C14.3588 -0.0455728 15.0666 -0.0305738 15.6803 0.0426555C15.8839 0.0682535 16.0777 0.100967 16.2402 0.127945C16.2517 0.129653 16.2632 0.131361 16.2748 0.13307C16.4274 0.157741 16.5591 0.16415 16.7214 0.171138C17.11 0.1878 17.6403 0.210429 18.7279 0.506431C19.0517 0.495523 19.3587 0.489593 19.6831 0.489593C23.115 0.489598 26.553 0.8757 29.9891 1.33808C30.0327 1.33569 30.0766 1.33323 30.1212 1.33075C30.9823 1.28283 32.0509 1.22354 32.7226 1.39298C33.5753 1.60841 34.1553 1.80832 34.6319 1.98084C37.3605 2.35289 40.0872 2.68533 42.8182 2.82274C43.6685 2.8658 44.5344 2.88935 45.3823 2.88935C45.9064 2.88935 46.4288 2.88295 46.9382 2.87064C47.2154 2.86428 47.4786 2.85634 47.7448 2.84689C48.2096 2.74583 48.646 2.62576 49.0428 2.51453C49.6204 2.35822 50.1137 2.21941 50.5377 2.17411C51.5406 2.06499 52.6821 2.23722 53.5317 2.36518C53.6648 2.3861 53.804 2.4059 53.9219 2.42302C54.5936 2.35964 55.2676 2.29178 55.941 2.22243C55.9858 2.26102 56.0306 2.30125 56.0771 2.34249C56.6522 2.8572 57.3562 2.8506 58.4696 2.84104C58.9552 2.83687 59.5127 2.83236 60.1738 2.86959C60.2363 2.8731 60.2951 2.88046 60.3504 2.891C60.6589 2.95249 60.8474 3.12202 60.997 3.26418C61.0495 3.31316 61.0992 3.35895 61.1499 3.39596C61.3229 3.52271 61.4982 3.38571 61.7153 3.22392C61.9877 3.014 62.3205 2.76188 62.7605 2.98965C64.1549 3.71541 64.7731 3.22304 65.2352 2.85055C65.3716 2.74129 65.4983 2.64257 65.6226 2.58774C66.0318 2.40998 66.6215 2.5861 67.0598 2.82786C67.4147 3.01956 68.1098 2.82951 68.6449 2.58774C68.8451 2.49632 69.117 2.49402 69.4382 2.49183C69.7678 2.48957 70.153 2.48752 70.5631 2.38495C71.5994 2.12576 72.1529 2.00013 72.594 1.89958C72.7202 1.87091 72.8392 1.84481 72.9562 1.81759C73.326 1.73156 73.7878 1.66069 74.2547 1.58918C74.8127 1.5036 75.3792 1.41671 75.8112 1.30074C76.9295 1.42347 78.0464 1.57532 79.164 1.72681C79.7381 1.80546 80.2888 2.24842 80.6948 2.97867C81.1004 3.7095 81.3288 4.66244 81.3288 5.65003C81.3288 6.63764 81.1004 7.59053 80.6948 8.3214C80.2888 9.05164 79.7381 9.49534 79.164 9.57399C78.0078 9.73075 76.8513 9.88761 75.6943 10.0125C74.2857 10.1646 72.875 10.2695 71.4685 10.2695C70.4831 10.2695 69.4968 10.2459 68.5109 10.2036C68.4089 10.1992 68.3074 10.1944 68.2064 10.1897C67.3784 10.4328 66.551 10.654 65.97 10.7329C65.4897 10.7979 65.1374 10.6682 64.8392 10.5572C64.6299 10.4808 64.4504 10.4132 64.265 10.4239C64.1645 10.4297 64.028 10.4447 63.8659 10.4627C63.1989 10.5363 62.0633 10.6612 61.0274 10.4239C60.8169 10.3749 60.5801 10.3038 60.3504 10.2217C60.0743 10.1275 59.797 10.0189 59.5273 9.91294C58.7961 9.6296 58.1206 9.36549 57.7772 9.4466C57.1755 9.58915 56.4848 9.4685 55.876 9.36168C55.2944 9.25979 54.7833 9.17082 54.4965 9.33533C54.1518 9.53199 53.8546 9.45183 53.4182 9.33313C53.1102 9.25081 52.7433 9.15031 52.2336 9.10985C51.6435 9.06315 51.2398 8.92538 50.8795 8.80823C50.3916 8.64336 50.0106 8.51941 49.4588 8.74747C48.833 9.00083 48.2046 9.16207 47.6836 9.08203C47.4659 9.04674 47.2119 9.0539 46.9382 9.06283C46.9296 9.06313 46.921 9.06343 46.9123 9.06373C46.5591 9.07604 46.1579 9.08877 45.8175 8.99784C45.5305 8.9229 45.2833 8.73119 45.0781 8.56152C45.0128 8.50859 44.9499 8.45806 44.8887 8.41364C44.6593 8.41608 44.4226 8.41968 44.1979 8.42535C44.1609 8.45621 44.122 8.49038 44.0813 8.52565C43.8791 8.70262 43.6158 8.91968 43.3112 9.02785C42.8186 9.19902 42.3846 9.09184 41.9269 8.97807C41.5632 8.8895 41.2054 8.79705 40.7746 8.83019C40.4841 8.85281 40.159 8.93118 39.8292 9.00882C39.344 9.12413 38.865 9.23762 38.5311 9.16549C38.4071 9.13845 38.3002 9.01805 38.1942 8.89828C38.1937 8.89754 38.1933 8.89681 38.1928 8.89608C38.1856 8.88795 38.1784 8.88001 38.1712 8.87192C37.3563 8.96367 36.549 9.0648 35.7376 9.17134C35.6672 9.20229 35.5959 9.23281 35.5253 9.26285C35.1818 9.40968 34.8484 9.5523 34.6299 9.75481C34.3921 9.97432 33.8011 10.1019 33.1743 10.2365C32.7652 10.3246 32.341 10.4156 31.9954 10.5374C31.7933 10.6086 31.6016 10.4845 31.4043 10.3566C31.2203 10.2372 31.0313 10.1147 30.8245 10.145C30.721 10.1602 30.6092 10.2116 30.49 10.2665C30.385 10.3149 30.274 10.3662 30.158 10.3976C30.0505 10.4267 29.809 10.3591 29.5006 10.2731C29.3098 10.22 29.0942 10.16 28.8667 10.1106C28.2645 10.1879 27.6643 10.262 27.0637 10.331C26.9385 10.4397 26.8311 10.5809 26.7443 10.7622C26.6822 10.8922 26.6294 11.0476 26.5752 11.2065C26.5014 11.4228 26.4251 11.6462 26.3202 11.8244C26.2383 11.9636 26.1417 12.0191 26.077 11.9613C26.0469 11.9343 26.0237 11.8835 26.0027 11.8376C25.9787 11.7849 25.9572 11.7381 25.931 11.7395C25.9121 11.7405 25.8925 11.7778 25.8684 11.8229C25.8296 11.895 25.7802 11.988 25.7031 11.9913C25.4156 12.0036 25.0908 11.9739 24.7752 11.9445C24.4211 11.9118 24.0735 11.8801 23.8008 11.9079C23.4936 11.939 23.0499 11.8006 22.6139 11.6626C22.3035 11.5664 21.9964 11.4706 21.7358 11.4313C21.4763 11.3928 21.204 11.4693 20.9459 11.544C20.64 11.6337 20.3276 11.7203 20.0758 11.5989C20.0245 11.5743 19.9608 11.4242 19.8813 11.2365C19.8255 11.1035 19.7591 10.9514 19.6831 10.8112C19.3509 10.8112 19.0379 10.805 18.7055 10.7936C18.6939 10.814 18.6819 10.8347 18.67 10.8559C18.6698 10.8563 18.6696 10.8568 18.6694 10.8573C18.3987 11.3347 18.0398 11.9878 17.5214 11.5982C17.3915 11.4992 17.3108 11.3162 17.2383 11.1516C17.1662 10.99 17.0979 10.8453 17.0019 10.8149C16.8925 10.7804 16.7645 10.8797 16.627 10.9876C16.439 11.1392 16.2099 11.3086 15.993 11.1509C15.9781 11.1401 15.9621 11.1283 15.9455 11.1165C15.8705 11.0631 15.7791 10.9975 15.6803 10.9075C15.5648 10.8083 15.4398 10.6795 15.3174 10.5045C14.6246 10.4153 13.9357 10.3109 13.2381 10.197C12.0795 10.007 10.9215 9.79045 9.77097 9.57399C9.20273 9.46744 8.66847 9.01271 8.26948 8.28479C7.87327 7.55585 7.64935 6.61902 7.65015 5.65003C7.64939 4.68112 7.8733 3.74489 8.26948 3.01601C8.66847 2.28804 9.20271 1.83337 9.77097 1.72681C10.6895 1.55508 11.5982 1.3831 12.5224 1.2246C12.5728 1.20448 12.6195 1.18501 12.6663 1.16677C13.0218 1.03099 13.3487 0.758276 13.6901 0.485201C13.7653 0.422476 13.839 0.359614 13.9151 0.29852Z" fill="black"/>
<path d="M10.413 66.2665C10.9926 65.8022 12.1026 65.9918 12.71 66.096C12.7211 66.0977 12.7322 66.0994 12.7434 66.1011C12.8876 66.1258 13.0261 66.1322 13.1914 66.1392C13.5676 66.1558 14.0859 66.1784 15.1728 66.4744C15.4858 66.4635 15.7907 66.4576 16.1125 66.4576C16.1879 66.4576 16.2638 66.4578 16.3402 66.4582C19.6586 66.4745 22.9732 66.8538 26.2968 67.3061C26.3394 67.3037 26.3828 67.3013 26.4267 67.2988C27.2853 67.2509 28.3267 67.1916 29.0028 67.361C29.8363 67.5764 30.4179 67.7763 30.889 67.9489C33.581 68.3209 36.2783 68.6533 38.9749 68.7908C39.8258 68.8338 40.6621 68.8574 41.5122 68.8574C42.2968 68.8574 43.0623 68.8426 43.8495 68.8149C44.3017 68.7138 44.7291 68.5938 45.1298 68.4825C45.6931 68.3262 46.1947 68.1874 46.6047 68.1421C47.5996 68.033 48.7271 68.2052 49.5665 68.3332C49.7038 68.3541 49.8338 68.3739 49.954 68.391C50.6199 68.3277 51.2808 68.2598 51.9503 68.1904C51.9949 68.229 52.0399 68.2693 52.0857 68.3105C52.6549 68.8252 53.3463 68.8186 54.4521 68.8091C54.9282 68.8049 55.4816 68.8004 56.1367 68.8376C56.5594 68.8616 56.7752 69.0657 56.9509 69.2322C57.0027 69.2812 57.0513 69.327 57.1005 69.364C57.2691 69.4907 57.447 69.3537 57.6575 69.1919C57.9305 68.982 58.2585 68.7299 58.6932 68.9577C60.0687 69.6834 60.6801 69.1911 61.1403 68.8186C61.2747 68.7093 61.3965 68.6106 61.5214 68.5558C61.9262 68.378 62.5044 68.5541 62.9426 68.7959C63.2921 68.9876 63.9806 68.7975 64.5072 68.5558C64.706 68.4643 64.9751 68.462 65.2926 68.4599C65.6224 68.4576 65.9983 68.4555 66.4041 68.353C67.4284 68.0938 67.9758 67.9681 68.4119 67.8676C68.5366 67.8389 68.6527 67.8128 68.7688 67.7856C69.1357 67.6996 69.5915 67.6287 70.0537 67.5572C70.605 67.4716 71.1644 67.3847 71.591 67.2688C72.6984 67.3915 73.7993 67.5433 74.9057 67.6948C75.4724 67.7735 76.0168 68.2164 76.4182 68.9467C76.8195 69.6775 77.0451 70.6305 77.0451 71.6181C77.0452 72.6057 76.8195 73.5585 76.4182 74.2894C76.0168 75.0197 75.4724 75.4634 74.9057 75.542C73.7609 75.6988 72.6212 75.8556 71.4756 75.9805C70.0847 76.1327 68.6907 76.2375 67.2984 76.2375C66.3229 76.2375 65.3515 76.2139 64.3755 76.1716C64.2753 76.1672 64.175 76.1624 64.0749 76.1577C63.2601 76.4009 62.4381 76.622 61.8642 76.7009C61.3893 76.766 61.0459 76.6362 60.747 76.5252C60.5422 76.4488 60.3612 76.3812 60.1782 76.392C60.08 76.3977 59.9458 76.4127 59.7843 76.4308C59.1273 76.5043 58.0001 76.6292 56.9808 76.392C56.5314 76.2866 55.9969 76.0791 55.4948 75.881C54.7761 75.5976 54.1062 75.3335 53.7652 75.4146C53.1671 75.5572 52.4937 75.4365 51.8855 75.3297C51.308 75.2278 50.8062 75.1388 50.5213 75.3033C50.1826 75.5 49.8877 75.4198 49.4534 75.3011C49.1521 75.2188 48.7829 75.1183 48.2842 75.0779C47.7076 75.0312 47.2921 74.8934 46.9453 74.7762C46.4542 74.6114 46.0945 74.4874 45.5386 74.7155C44.9244 74.9688 44.2925 75.1301 43.7898 75.05C43.5593 75.0136 43.2963 75.0224 43.0238 75.0317C42.6629 75.0441 42.2853 75.0568 41.9422 74.9659C41.6545 74.8909 41.4173 74.6992 41.2081 74.5295C41.1429 74.4766 41.0803 74.4261 41.0198 74.3817C40.7923 74.3841 40.5657 74.3877 40.3398 74.3934C40.3033 74.4242 40.2648 74.4584 40.2248 74.4937C40.0253 74.6706 39.773 74.8877 39.4631 74.9959C38.9726 75.167 38.5456 75.0599 38.0982 74.9461C37.745 74.8575 37.3748 74.7651 36.9563 74.7982C36.6696 74.8208 36.3503 74.8992 36.0253 74.9768C35.5406 75.0921 35.0673 75.2056 34.7404 75.1335C34.6179 75.1065 34.5129 74.9861 34.4091 74.8663C34.4087 74.8656 34.4082 74.8648 34.4078 74.8641C34.4007 74.856 34.3936 74.848 34.3866 74.8399C33.5732 74.9317 32.792 75.0328 31.978 75.1394C31.9082 75.1703 31.8378 75.2008 31.7681 75.2309C31.4274 75.3777 31.0997 75.5203 30.8871 75.7228C30.657 75.9423 30.0577 76.07 29.4461 76.2045C29.0505 76.2927 28.6189 76.3837 28.2789 76.5054C28.079 76.5766 27.8904 76.4525 27.6975 76.3246C27.5185 76.2052 27.3319 76.0828 27.1244 76.113C27.021 76.1282 26.9097 76.1796 26.7914 76.2346C26.6872 76.2829 26.5774 76.3342 26.4629 76.3656C26.3565 76.3947 26.1201 76.3271 25.8202 76.2411C25.6284 76.188 25.4118 76.128 25.1865 76.0786C24.5943 76.1559 24.0006 76.2301 23.405 76.299C23.2816 76.4077 23.1751 76.5489 23.0911 76.7302C23.0308 76.8602 22.9796 77.0156 22.9271 77.1745C22.8559 77.3908 22.7816 77.6142 22.6754 77.7924C22.593 77.9317 22.4963 77.9871 22.4315 77.9293C22.4013 77.9024 22.3782 77.8515 22.3572 77.8056C22.3332 77.753 22.3117 77.7062 22.2856 77.7075C22.2668 77.7086 22.2472 77.7458 22.2231 77.791C22.1846 77.863 22.1346 77.956 22.0589 77.9593C21.7735 77.9716 21.4722 77.9419 21.1453 77.9125C20.7906 77.8798 20.451 77.8481 20.1839 77.8759C19.886 77.907 19.4338 77.7686 19.008 77.6306C18.7163 77.5344 18.3959 77.4386 18.1374 77.3993C17.879 77.3608 17.6282 77.4373 17.3633 77.512C17.047 77.6017 16.7506 77.6883 16.5033 77.5669C16.459 77.5451 16.4054 77.4251 16.3402 77.2676C16.3312 77.2472 16.322 77.2261 16.3126 77.2046C16.2544 77.0715 16.1878 76.9194 16.1125 76.7792C15.7828 76.7792 15.4729 76.7731 15.1502 76.7617C15.1386 76.782 15.1266 76.8027 15.1146 76.8239C15.1144 76.8244 15.1142 76.8249 15.114 76.8253C14.8386 77.3028 14.4955 77.9558 13.978 77.5662C13.8468 77.4672 13.7655 77.2843 13.6925 77.1196C13.6208 76.958 13.5571 76.8133 13.4648 76.7829C13.3602 76.7484 13.2381 76.8477 13.0948 76.9557C12.8974 77.1072 12.6817 77.2766 12.4711 77.1189C12.4567 77.1081 12.4413 77.0963 12.4253 77.0845C12.27 76.9723 12.0268 76.8064 11.8002 76.4725C11.1145 76.3833 10.4303 76.279 9.74276 76.165C8.60403 75.9751 7.46202 75.7585 6.3157 75.542C5.75941 75.4355 5.22766 74.9807 4.83432 74.2528C4.44126 73.5239 4.22364 72.587 4.22327 71.6181C4.22368 70.6491 4.44128 69.7129 4.83432 68.984C5.22766 68.2561 5.75938 67.8014 6.3157 67.6948C7.21977 67.5231 8.13153 67.3511 9.03443 67.1926C9.0817 67.1725 9.12964 67.153 9.17784 67.1348C9.53914 66.999 9.86092 66.7263 10.1888 66.4532C10.2625 66.3905 10.3372 66.3276 10.413 66.2665Z" fill="black"/>
<path d="M82.7123 13.2915C82.9821 13.5887 83.0274 14.0518 82.997 14.5044C82.9755 14.8068 82.9157 15.1312 82.8712 15.3475C82.8694 15.3574 82.8676 15.3674 82.8659 15.3773C82.8404 15.5061 82.8333 15.6296 82.8255 15.7767C82.8068 16.1161 82.7815 16.5815 82.4793 17.5507C82.4884 17.8297 82.4924 18.1211 82.4905 18.3975C82.4696 21.4519 82.0556 24.4979 81.5524 27.545C81.5543 27.5836 81.5562 27.6228 81.5582 27.6624C81.5958 28.4306 81.6411 29.3805 81.4621 29.9748C81.2347 30.731 81.0258 31.243 80.8458 31.6632C80.4306 34.0831 80.045 36.5028 79.8362 38.9296C79.7709 39.6868 79.7229 40.4529 79.6963 41.2138C79.6717 41.9179 79.6598 42.6229 79.6584 43.3252C79.7148 43.6066 79.7799 43.8762 79.8453 44.1318C79.877 44.2599 79.9087 44.3843 79.9397 44.5051C80.0726 45.0171 80.1884 45.4872 80.2146 45.8582C80.277 46.7715 80.045 47.7905 79.868 48.5442C79.8391 48.6681 79.8117 48.7841 79.7875 48.8907C79.8105 49.5037 79.8355 50.1116 79.8584 50.7257C79.8169 50.7635 79.7736 50.8013 79.7293 50.8396C79.1764 51.3151 79.1333 51.9524 79.0534 52.9521C79.0179 53.3928 78.9758 53.8929 78.8787 54.4873C78.8168 54.8625 78.592 55.0474 78.41 55.1853C78.3564 55.2264 78.306 55.2678 78.2644 55.3088C78.1216 55.4518 78.241 55.6213 78.3802 55.8343C78.5612 56.1065 78.7779 56.4352 78.5053 56.8015C77.6355 57.9664 78.0468 58.578 78.3599 59.0465C78.4518 59.1816 78.534 59.3084 78.5727 59.4293C78.6978 59.8224 78.4486 60.3215 78.1529 60.6757C78.0349 60.8144 78.0006 61.0548 78.0201 61.309C78.0411 61.5442 78.1152 61.7989 78.2088 62.0201C78.2802 62.1902 78.258 62.4028 78.2351 62.6546C78.2116 62.9134 78.1871 63.2175 78.2675 63.5463C78.4724 64.3765 78.5921 64.8131 78.6848 65.1702C78.7116 65.2712 78.7363 65.3673 78.7625 65.462C78.845 65.7632 78.9154 66.1406 78.9895 66.5364C79.0782 67.009 79.1714 67.5097 79.2905 67.9029C79.2106 68.6177 79.1111 69.3716 78.986 70.1383C78.9904 70.1664 78.9764 70.252 78.9799 70.2802C78.9164 70.614 78.8378 71.0023 78.7761 71.2189C78.7569 71.2884 78.7273 71.3493 78.6868 71.4124C78.5009 71.6966 78.0912 71.9761 77.4943 72.2252C76.7672 72.5258 75.8258 72.7594 74.8389 72.806C73.8531 72.8521 72.8883 72.6913 72.152 72.2885C71.548 71.9598 71.1457 71.4915 71.005 70.979C70.9742 70.8684 70.956 70.7542 70.9499 70.646C70.9318 70.2838 70.9055 70.0659 70.8759 69.8011L70.8708 69.9207C70.7792 69.2584 70.6735 68.5851 70.5782 67.8745C70.4148 66.6614 70.287 65.3111 70.3506 63.9089C70.3938 62.929 70.5005 61.9395 70.6648 60.9697C70.6816 60.8706 70.6993 60.7708 70.7175 60.6703C70.6954 60.5299 70.6746 60.3891 70.656 60.2472C70.5521 59.6119 70.4706 59.0294 70.4633 58.6073C70.4562 58.19 70.6251 57.9099 70.7688 57.6718C70.8679 57.5066 70.9551 57.3614 70.9647 57.2031C70.9701 57.1164 70.9697 57.0017 70.9693 56.861C70.9685 56.2838 70.9581 55.3168 71.2874 54.4567C71.433 54.0829 71.6864 53.6415 71.9253 53.2279C72.2677 52.6299 72.582 52.0699 72.5268 51.764C72.4292 51.2358 72.5979 50.6446 72.744 50.1283C72.8836 49.6329 73.0036 49.1939 72.8565 48.9349C72.6811 48.6189 72.7778 48.3733 72.9208 47.9976C73.02 47.7348 73.1402 47.4228 73.2066 46.9807C73.2829 46.4766 73.4401 46.1209 73.5734 45.8202C73.7612 45.3901 73.901 45.078 73.6965 44.5782C73.5961 44.3373 73.5135 44.0897 73.461 43.8483C73.3942 43.5509 73.3758 43.2635 73.4309 43.0141C73.4756 42.8133 73.476 42.584 73.4762 42.3409C73.4765 42.0157 73.4761 41.6869 73.5781 41.38C73.6622 41.1262 73.8609 40.9277 74.0369 40.7475C74.0918 40.6915 74.1442 40.6376 74.1904 40.5852C74.1948 40.3825 74.1979 40.1784 74.1987 39.9778C74.1689 39.9442 74.1358 39.9088 74.1017 39.8718C73.9306 39.6866 73.7207 39.4565 73.6209 39.1789C73.4629 38.7434 73.5812 38.3596 73.706 37.9642C73.8032 37.6547 73.9045 37.3279 73.881 36.9555C73.8649 36.7009 73.794 36.406 73.7233 36.1179C73.6184 35.6891 73.5148 35.2622 73.5935 34.9719C73.623 34.8628 73.7454 34.771 73.8672 34.6801C73.868 34.6797 73.8687 34.6793 73.8695 34.6789C73.8777 34.6727 73.8858 34.6665 73.894 34.6604C73.8181 33.9432 73.7315 33.2268 73.6386 32.5101C73.6088 32.4475 73.5795 32.3844 73.5506 32.3218C73.4095 32.0159 73.2722 31.7188 73.0731 31.5234C72.8573 31.3119 72.7389 30.7858 72.6133 30.2334C72.531 29.8706 72.4459 29.4959 72.3287 29.1904C72.2603 29.0108 72.3868 28.8435 72.5173 28.6715C72.639 28.5111 72.7639 28.3467 72.7362 28.1645C72.7223 28.0728 72.6723 27.9732 72.6188 27.8672C72.5717 27.7738 72.5218 27.6752 72.4917 27.5725C72.464 27.4764 72.5343 27.2682 72.6239 26.9953C72.6792 26.8275 72.7416 26.6371 72.7935 26.4379C72.7228 25.9066 72.6549 25.3793 72.5919 24.8452C72.4844 24.7332 72.3442 24.6359 72.1638 24.5582C72.0344 24.5025 71.8795 24.4546 71.7211 24.4055C71.5056 24.3384 71.2828 24.2709 71.1056 24.1753C70.9672 24.1011 70.9126 24.0149 70.971 23.9582C70.9983 23.9318 71.0493 23.9118 71.0954 23.8937C71.1483 23.8729 71.1953 23.8544 71.1942 23.8311C71.1933 23.8144 71.1562 23.7966 71.1113 23.7748C71.0396 23.7399 70.947 23.6945 70.9444 23.6271C70.9347 23.3775 70.9673 23.0898 70.9993 22.8098C71.035 22.4998 71.0695 22.1955 71.0439 21.9514C71.0152 21.68 71.157 21.294 71.2982 20.9063C71.3967 20.639 71.4947 20.366 71.5358 20.1332C71.5761 19.905 71.5013 19.6719 71.4284 19.4373C71.3408 19.1569 71.256 18.9018 71.379 18.67C71.404 18.6241 71.5544 18.568 71.7426 18.4981C71.876 18.4485 72.0285 18.3915 72.1691 18.3268C72.171 18.0455 72.1792 17.7484 72.1924 17.4648C72.1721 17.4546 72.1515 17.4441 72.1304 17.4336C72.1299 17.4335 72.1294 17.4333 72.1289 17.4331C71.653 17.2014 71.0021 16.8614 71.3944 16.4163C71.4942 16.2994 71.6775 16.2275 71.8425 16.1628C72.0046 16.0993 72.1496 16.0429 72.1805 15.9598C72.2155 15.8657 72.1169 15.7549 72.0097 15.6276C71.8591 15.4509 71.6908 15.2593 71.8496 15.0696C71.8605 15.0561 71.8724 15.0416 71.8843 15.0265C71.9973 14.8832 72.1644 14.6748 72.4994 14.4754C72.501 14.4652 72.5026 14.455 72.5042 14.4448C72.5958 13.8344 72.702 13.2341 72.8174 12.633C73.0132 11.6101 73.2356 10.5856 73.4578 9.566C73.5672 9.06658 74.0246 8.59539 74.7545 8.24592C75.4854 7.89721 76.4233 7.70908 77.3922 7.71045C78.3612 7.71854 79.2963 7.91881 80.0232 8.27553C80.7491 8.63335 81.2011 9.10974 81.3048 9.61043C81.472 10.424 81.6393 11.2387 81.7932 12.0477C81.8131 12.0904 81.8323 12.1338 81.8503 12.1773C81.9843 12.492 82.2553 12.7934 82.5268 13.0839C82.5891 13.1521 82.6516 13.2213 82.7123 13.2915Z" fill="black"/>
<path d="M12.2 12.4468C12.6026 13.032 12.3028 14.0469 12.1398 14.6039C12.1369 14.6143 12.1341 14.6247 12.1313 14.635C12.0922 14.7712 12.0731 14.8922 12.0503 15.0427C12.0042 15.349 11.946 15.7301 11.6887 16.4391C11.6491 16.4952 11.604 16.5622 11.553 16.6445C11.5537 16.8104 11.5551 16.9778 11.5558 17.1757C11.569 19.3252 11.8603 22.5322 12.0931 25.6905C12.1042 25.7292 12.1156 25.7687 12.1272 25.8087C12.3477 26.5707 12.628 27.5306 12.6035 28.187C12.5707 29.0135 12.4971 29.5961 12.4272 30.0735C12.6298 32.6808 12.8432 35.3096 13.1484 37.9337C13.2435 38.7526 13.349 39.575 13.4663 40.3984C13.5739 41.1531 13.687 41.9138 13.8015 42.6729C13.9528 43.1078 14.1164 43.518 14.2655 43.9032C14.4751 44.4455 14.655 44.9307 14.7316 45.3407C14.9174 46.329 14.8035 47.4759 14.6998 48.3224C14.683 48.461 14.6667 48.5922 14.6525 48.713C14.7078 49.1783 14.76 49.6468 14.8076 50.1186C14.8281 50.3043 14.8497 50.486 14.8721 50.6637C14.8338 50.7034 14.7939 50.7432 14.7531 50.7836C14.2444 51.304 14.2591 51.9311 14.3131 52.9126C14.3375 53.3448 14.3694 53.833 14.3769 54.4152C14.3813 54.783 14.1967 55.0014 14.0449 55.1696C14.0004 55.2202 13.9585 55.264 13.9261 55.3141C13.8149 55.4824 13.9668 55.625 14.1476 55.7948C14.3828 56.021 14.6652 56.2769 14.487 56.6914C13.9251 58.0255 14.503 58.5695 14.9234 59.0434C15.0471 59.1808 15.1589 59.3213 15.2247 59.4687C15.443 59.945 15.2854 60.8438 14.9343 61.5182C14.684 62.0428 14.554 63.1634 14.4347 63.9347C14.4044 64.1672 14.2931 64.4214 14.1446 64.6936C14.1702 64.651 14.1851 64.6211 14.1926 64.606C14.2219 64.5382 14.1454 64.7397 14.1842 65.0156C14.2712 65.7526 14.32 66.2769 14.3576 66.6549C14.3687 66.765 14.3781 66.8715 14.3894 66.9753C14.4243 67.3079 14.4344 67.7236 14.4447 68.1568C14.4571 68.6744 14.4689 69.2173 14.5234 69.6485C14.2367 70.7061 13.9993 71.6493 13.4228 73.1861C13.419 73.2185 13.3785 73.3089 13.3735 73.3411C13.3868 73.2874 13.4018 73.2254 13.422 73.1302C13.438 72.886 13.6332 72.6645 13.4031 71.3736C13.2969 70.7608 12.7156 69.6011 11.8774 69.019C11.0567 68.4244 10.4754 68.3541 10.215 68.3074C9.93983 68.2722 9.87985 68.2932 9.93694 68.3159C9.99931 68.3435 10.185 68.3726 10.56 68.4833C10.9238 68.5974 11.5622 68.8111 12.239 69.4062C12.9215 69.9933 13.3527 70.8722 13.4771 71.4621C13.7081 72.6488 13.4837 73.0244 13.3907 73.3431C13.2696 73.6534 13.1488 73.8061 13.033 73.9332C12.7955 74.1903 12.574 74.2831 12.3433 74.3576C11.4324 74.598 10.4992 74.2901 9.62301 73.8415C8.7479 73.3829 8.03055 72.7072 7.45092 72.2105C7.30284 72.0951 7.16386 71.9915 7.00944 71.9937C6.93235 71.9989 6.85001 72.0212 6.7593 72.1637C6.68984 72.3187 6.50719 72.5127 6.65872 73.3823C6.74142 73.814 7.06344 74.4901 7.58026 74.9416C8.09242 75.3991 8.56456 75.5586 8.80872 75.6429C9.06206 75.7244 9.15791 75.7455 9.15103 75.7653C9.13951 75.7811 9.0309 75.7963 8.74241 75.7581C8.46722 75.7103 7.92272 75.6363 7.18872 75.1052C6.43986 74.5854 5.92136 73.5601 5.81921 72.9902C5.59997 71.7922 5.78503 71.4816 5.82728 71.1559C5.85783 71.0211 5.88546 70.9174 5.91627 70.8119L5.87495 70.9417C5.87409 70.4092 5.89654 69.2915 5.91699 68.2934C5.95332 66.9923 6.01263 65.651 6.30763 64.1277C6.52248 63.2579 6.49899 62.6495 7.40912 60.8854C7.48029 60.7761 7.53462 60.689 7.57529 60.6244C7.59235 60.5973 7.60644 60.5761 7.61902 60.5572C7.538 60.4268 7.4124 60.4241 7.31935 60.4113C7.22487 60.4008 7.15505 60.3397 7.11094 60.2274C7.03889 60.0429 7.14093 59.7724 7.2238 59.5292C7.28005 59.3556 7.32773 59.1965 7.29534 59.032C7.27856 58.9484 7.24707 58.825 7.20913 58.6767C7.05426 58.0774 6.77863 56.9394 6.91853 55.8609C6.98004 55.3896 7.14251 54.8171 7.30801 54.3044C7.54274 53.5525 7.77975 52.8757 7.68664 52.5315C7.52319 51.9495 7.62967 51.2494 7.73256 50.6583C7.76466 50.4718 7.79614 50.2899 7.81829 50.1186C7.86362 49.8115 7.86462 49.552 7.75171 49.3825C7.55055 49.0813 7.62543 48.8232 7.73187 48.4315C7.80546 48.16 7.89392 47.8277 7.91158 47.3745C7.93162 46.8513 8.04468 46.4764 8.1393 46.1525C8.2719 45.697 8.36865 45.3517 8.0964 44.874C7.79367 44.3425 7.57322 43.7899 7.60035 43.3259C7.61288 43.1151 7.576 42.8801 7.53629 42.6363C7.4835 42.3114 7.42583 41.9704 7.47293 41.6458C7.51186 41.3791 7.67089 41.1372 7.81105 40.9226C7.85477 40.8556 7.89638 40.7913 7.93216 40.7297C7.89908 40.523 7.86414 40.3169 7.82647 40.1116C7.79079 40.083 7.75155 40.0531 7.71091 40.0216C7.50702 39.8638 7.25663 39.6716 7.104 39.4104C6.8627 38.9989 6.90131 38.5914 6.94064 38.1626C6.9714 37.8299 7.00143 37.479 6.8972 37.1037C6.82604 36.8474 6.69314 36.5699 6.5591 36.2889C6.36037 35.873 6.16377 35.4725 6.17244 35.1553C6.17593 35.0375 6.27399 34.9168 6.37153 34.797C6.37216 34.7964 6.37279 34.7959 6.37342 34.7953C6.38005 34.7872 6.38647 34.779 6.39305 34.7709C6.15297 34.0636 5.89721 33.3539 5.63171 32.6421C5.58754 32.5853 5.54363 32.5278 5.5003 32.4709C5.28881 32.1937 5.08234 31.9231 4.84039 31.7692C4.57813 31.6022 4.33432 31.0994 4.0733 30.5579C3.90341 30.2076 3.72648 29.8408 3.53571 29.5515C3.42426 29.3826 3.50565 29.1813 3.58948 28.9732C3.66705 28.7761 3.74684 28.5745 3.67425 28.3912C3.63786 28.2994 3.56453 28.2082 3.48625 28.1111C3.41728 28.0254 3.34464 27.9364 3.28932 27.8337C3.23824 27.7392 3.25359 27.4998 3.27389 27.1957C3.2865 27.008 3.30074 26.7951 3.30163 26.5692C3.10276 26.0249 2.9073 25.4691 2.7224 24.9152C2.59153 24.8195 2.43105 24.7395 2.23655 24.6927C2.09692 24.6586 1.93422 24.6383 1.76784 24.6172C1.54144 24.5884 1.30743 24.5581 1.11228 24.4904C0.959787 24.4375 0.886689 24.3536 0.931013 24.2791C0.95169 24.2444 0.997133 24.212 1.03823 24.1827C1.08531 24.1492 1.12715 24.1191 1.12067 24.0928C1.11593 24.074 1.0755 24.0613 1.02648 24.0455C0.948219 24.0202 0.847084 23.9871 0.829097 23.9106C0.761755 23.6238 0.732533 23.3033 0.703014 22.9677C0.67028 22.5952 0.6446 22.248 0.570215 21.955C0.487504 21.6315 0.555842 21.1543 0.630538 20.6511C0.683485 20.308 0.739771 19.9561 0.749222 19.6549C0.758697 19.3631 0.655963 19.065 0.560091 18.7608C0.445357 18.4033 0.341473 18.0385 0.454367 17.7158C0.477293 17.6511 0.625381 17.5678 0.811485 17.4666C0.943387 17.3942 1.09455 17.3159 1.23433 17.2215C1.23283 16.8088 1.24812 16.4193 1.28738 15.9775C1.26804 15.9611 1.24839 15.944 1.22833 15.9268C1.22786 15.9266 1.22739 15.9263 1.22692 15.926C1.02951 15.7572 0.802867 15.5539 0.652182 15.3158C0.44847 15.0968 0.360345 14.8599 0.60691 14.6097C0.718231 14.4955 0.908169 14.437 1.0791 14.3845C1.24697 14.333 1.39715 14.2873 1.43656 14.2024C1.48143 14.1038 1.3954 13.9715 1.30165 13.8301C1.16982 13.6333 1.02332 13.4068 1.20181 13.2184C1.21399 13.2055 1.22733 13.1917 1.24074 13.1773C1.36759 13.0445 1.55689 12.8331 1.91202 12.6528C2.07042 12.01 2.24521 11.3693 2.43085 10.7308C2.74059 9.66402 3.0806 8.60242 3.42571 7.54232C3.59526 7.02283 4.10854 6.57445 4.87687 6.2923C5.64729 5.99516 6.59596 5.98272 7.56235 5.99707C8.5278 6.14425 9.42763 6.47979 10.106 6.93791C10.7825 7.39875 11.1736 7.94394 11.2171 8.47641C11.2871 9.3347 11.3593 10.2058 11.4223 11.0616C11.4373 11.1082 11.4515 11.1553 11.4646 11.2024C11.5629 11.5437 11.8 11.8791 12.0374 12.2173C12.0922 12.293 12.147 12.3696 12.2 12.4468ZM13.9198 0.29852C14.5025 -0.165855 15.6261 0.0237913 16.2442 0.127945C16.2555 0.129653 16.2669 0.131361 16.2782 0.13307C16.4249 0.157741 16.5636 0.16415 16.7262 0.171138C17.1139 0.1878 17.6376 0.210429 18.7308 0.506431C19.0488 0.495523 19.3669 0.489593 19.685 0.489593C23.1197 0.489598 26.5545 0.8757 29.9892 1.33808C30.0326 1.33569 30.0767 1.33323 30.1213 1.33075C30.9828 1.28283 32.0511 1.22354 32.7223 1.39298C33.5756 1.60841 34.1552 1.80832 34.6312 1.98084C37.3594 2.35289 40.0876 2.68533 42.8158 2.82274C43.6708 2.8658 44.526 2.88935 45.381 2.88935C46.1684 2.88935 46.956 2.87461 47.7433 2.84689C48.2019 2.74583 48.6378 2.62576 49.0421 2.51453C49.6102 2.35822 50.116 2.21941 50.5337 2.17411C51.5402 2.06499 52.682 2.23722 53.5298 2.36518C53.6684 2.3861 53.7992 2.4059 53.9202 2.42302C54.5936 2.35964 55.2671 2.29178 55.9405 2.22243C55.9855 2.26102 56.0308 2.30125 56.0768 2.34249C56.6515 2.8572 57.358 2.8506 58.47 2.84104C58.9543 2.83687 59.5156 2.83236 60.1764 2.86959C60.6022 2.89358 60.8209 3.09766 60.9996 3.26418C61.0522 3.31316 61.1015 3.35895 61.1514 3.39596C61.3224 3.52271 61.5027 3.38571 61.7157 3.22392C61.9921 3.014 62.3236 2.76188 62.7616 2.98965C64.1571 3.71541 64.772 3.22304 65.2372 2.85055C65.3736 2.74129 65.4973 2.64257 65.6239 2.58774C66.0345 2.40998 66.6194 2.5861 67.0615 2.82786C67.4121 3.01956 68.1134 2.82951 68.6453 2.58774C68.8464 2.49632 69.1184 2.49402 69.4388 2.49183C69.7703 2.48957 70.1538 2.48752 70.5641 2.38495C71.601 2.12576 72.1521 2.00013 72.5951 1.89958C72.7214 1.87091 72.839 1.84481 72.9565 1.81759C73.3279 1.73156 73.7887 1.66069 74.2553 1.58918C74.8137 1.5036 75.3804 1.41671 75.8115 1.30074C76.9291 1.42347 78.0468 1.57532 79.1643 1.72681C79.7383 1.80546 80.2891 2.24842 80.695 2.97867C81.1008 3.7095 81.3288 4.66244 81.3288 5.65003C81.3288 6.63764 81.1008 7.59053 80.695 8.3214C80.2891 9.05164 79.7383 9.49534 79.1643 9.57399C78.008 9.73075 76.8514 9.88761 75.6949 10.0125C74.2862 10.1646 72.8773 10.2695 71.4686 10.2695C70.4831 10.2695 69.4976 10.2459 68.5121 10.2036C68.4106 10.1992 68.3092 10.1944 68.2077 10.1897C67.3798 10.4328 66.5535 10.654 65.9713 10.7329C65.4906 10.7979 65.1402 10.6682 64.84 10.5572C64.6335 10.4808 64.4507 10.4132 64.2658 10.4239C64.1665 10.4297 64.0309 10.4447 63.8673 10.4627C63.1993 10.5363 62.0649 10.6612 61.03 10.4239C60.5707 10.3186 60.0373 10.1111 59.528 9.91294C58.7997 9.6296 58.1206 9.36549 57.7778 9.4466C57.1758 9.58915 56.4853 9.4685 55.8753 9.36168C55.2934 9.25979 54.7844 9.17082 54.495 9.33533C54.1491 9.53199 53.8542 9.45183 53.4157 9.33313C53.1116 9.25081 52.7383 9.15031 52.231 9.10985C51.6454 9.06315 51.231 8.92538 50.8789 8.80823C50.3832 8.64336 50.0103 8.51941 49.4544 8.74747C48.837 9.00083 48.1917 9.16207 47.6835 9.08203C47.452 9.04557 47.1872 9.05443 46.9117 9.06373C46.5469 9.07604 46.1633 9.08877 45.813 8.99784C45.5243 8.9229 45.2858 8.73119 45.0746 8.56152C45.0088 8.50859 44.9456 8.45806 44.8844 8.41364C44.6545 8.41608 44.4246 8.41968 44.1946 8.42535C44.1574 8.45621 44.1183 8.49038 44.0774 8.52565C43.8725 8.70262 43.6205 8.91968 43.3085 9.02785C42.8147 9.19902 42.3813 9.09184 41.9242 8.97807C41.5684 8.8895 41.1981 8.79705 40.7736 8.83019C40.4841 8.85281 40.1545 8.93118 39.8278 9.00882C39.3425 9.12413 38.8634 9.23762 38.5304 9.16549C38.4057 9.13845 38.2984 9.01805 38.1923 8.89828C38.1918 8.89754 38.1914 8.89681 38.1909 8.89608C38.1837 8.88795 38.1764 8.88001 38.1693 8.87192C37.3584 8.96367 36.5475 9.0648 35.7367 9.17134C35.6664 9.20229 35.5954 9.23281 35.525 9.26285C35.1812 9.40968 34.8471 9.5523 34.6293 9.75481C34.3932 9.97432 33.7997 10.1019 33.1742 10.2365C32.7646 10.3246 32.3411 10.4156 31.9955 10.5374C31.7934 10.6086 31.6016 10.4845 31.4044 10.3566C31.2203 10.2372 31.0314 10.1147 30.8248 10.145C30.7214 10.1602 30.6096 10.2116 30.4904 10.2665C30.3854 10.3149 30.2744 10.3662 30.1582 10.3976C30.0502 10.4267 29.8097 10.3591 29.5013 10.2731C29.3107 10.22 29.0942 10.16 28.867 10.1106C28.2663 10.1879 27.6655 10.262 27.0648 10.331C26.9395 10.4397 26.8307 10.5809 26.7447 10.7622C26.6829 10.8922 26.6303 11.0476 26.5763 11.2065C26.5028 11.4228 26.4268 11.6462 26.3219 11.8244C26.24 11.9636 26.1434 12.0191 26.0785 11.9613C26.0483 11.9343 26.0251 11.8835 26.0041 11.8376C25.9799 11.7849 25.9584 11.7381 25.9321 11.7395C25.9132 11.7405 25.8934 11.7778 25.8692 11.8229C25.8304 11.895 25.78 11.988 25.7033 11.9913C25.418 12.0036 25.0936 11.9739 24.7758 11.9445C24.4225 11.9118 24.0771 11.8801 23.8019 11.9079C23.4937 11.939 23.0544 11.8006 22.6145 11.6626C22.3075 11.5664 22.0001 11.4706 21.7364 11.4313C21.478 11.3928 21.2089 11.4693 20.9483 11.544C20.6355 11.6337 20.3347 11.7203 20.079 11.5989C20.0273 11.5743 19.9631 11.4242 19.8825 11.2365C19.8255 11.1035 19.7597 10.9514 19.685 10.8112C19.3595 10.8112 19.034 10.805 18.7085 10.7936C18.6971 10.814 18.6853 10.8347 18.6734 10.8559C18.6732 10.8563 18.673 10.8568 18.6729 10.8573C18.4055 11.3347 18.0398 11.9878 17.5258 11.5982C17.3952 11.4992 17.313 11.3162 17.2389 11.1516C17.1661 10.99 17.1011 10.8453 17.0059 10.8149C16.8977 10.7804 16.7701 10.8797 16.6309 10.9876C16.4355 11.1392 16.2173 11.3086 15.9983 11.1509C15.9833 11.1401 15.9672 11.1283 15.9505 11.1165C15.7917 11.0043 15.5567 10.8384 15.3229 10.5045C14.6291 10.4153 13.9352 10.3109 13.2413 10.197C12.0848 10.007 10.928 9.79045 9.77163 9.57399C9.20902 9.46744 8.66945 9.01271 8.27161 8.28479C7.87374 7.55585 7.65018 6.61902 7.65018 5.65003C7.65021 4.68112 7.87377 3.74489 8.27161 3.01601C8.66945 2.28804 9.209 1.83337 9.77163 1.72681C10.6891 1.55508 11.6068 1.3831 12.5243 1.2246C12.5724 1.20448 12.6207 1.18501 12.6688 1.16677C13.0265 1.03099 13.3584 0.758276 13.6905 0.485201C13.7668 0.422476 13.8432 0.359614 13.9198 0.29852ZM10.42 66.2666C10.9959 65.8022 12.1065 65.9918 12.7174 66.096C12.7286 66.0977 12.7398 66.0994 12.751 66.1011C12.896 66.1258 13.0331 66.1322 13.1938 66.1392C13.5769 66.1559 14.0946 66.1785 15.175 66.4745C15.4893 66.4636 15.8038 66.4576 16.1181 66.4576C19.5129 66.4576 22.9077 66.8438 26.3026 67.3061C26.3455 67.3037 26.3891 67.3013 26.4331 67.2988C27.2846 67.2509 28.3404 67.1916 29.0038 67.361C29.8473 67.5765 30.4201 67.7764 30.8906 67.9489C33.587 68.3209 36.2835 68.6534 38.9799 68.7908C39.8251 68.8339 40.6703 68.8574 41.5154 68.8574C42.2936 68.8574 43.072 68.8427 43.8502 68.8149C44.3034 68.7139 44.7343 68.5938 45.1339 68.4826C45.6954 68.3263 46.1953 68.1875 46.6082 68.1422C47.603 68.033 48.7314 68.2053 49.5694 68.3332C49.7064 68.3541 49.8357 68.374 49.9553 68.3911C50.6208 68.3277 51.2865 68.2598 51.9521 68.1905C51.9965 68.2291 52.0413 68.2693 52.0868 68.3105C52.6548 68.8253 53.3531 68.8187 54.4522 68.8091C54.9308 68.8049 55.4856 68.8004 56.1387 68.8376C56.5595 68.8616 56.7757 69.0657 56.9523 69.2322C57.0043 69.2812 57.053 69.327 57.1024 69.364C57.2714 69.4908 57.4496 69.3538 57.6602 69.192C57.9333 68.9821 58.261 68.7299 58.6938 68.9577C60.0731 69.6835 60.6809 69.1911 61.1406 68.8186C61.2755 68.7093 61.3977 68.6106 61.5229 68.5558C61.9287 68.378 62.5068 68.5542 62.9438 68.7959C63.2903 68.9876 63.9834 68.7976 64.5092 68.5558C64.7079 68.4644 64.9768 68.4621 65.2934 68.4599C65.621 68.4576 66.0001 68.4556 66.4057 68.353C67.4305 68.0938 67.9752 67.9682 68.413 67.8676C68.5378 67.839 68.6541 67.8129 68.7702 67.7856C69.1373 67.6996 69.5928 67.6287 70.0539 67.5572C70.6058 67.4717 71.1659 67.3848 71.5921 67.2688C72.6967 67.3915 73.8014 67.5434 74.9059 67.6949C75.4732 67.7735 76.0175 68.2165 76.4187 68.9467C76.8198 69.6776 77.0451 70.6305 77.0451 71.6181C77.0452 72.6057 76.8198 73.5586 76.4187 74.2895C76.0175 75.0197 75.4732 75.4634 74.9059 75.542C73.763 75.6988 72.6198 75.8557 71.4768 75.9806C70.0844 76.1327 68.692 76.2375 67.2996 76.2375C66.3256 76.2375 65.3515 76.214 64.3775 76.1716C64.2772 76.1673 64.1769 76.1625 64.0766 76.1577C63.2584 76.4009 62.4417 76.6221 61.8662 76.7009C61.3911 76.766 61.0448 76.6362 60.7481 76.5252C60.544 76.4488 60.3633 76.3812 60.1806 76.392C60.0824 76.3978 59.9483 76.4128 59.7867 76.4308C59.1265 76.5044 58.0052 76.6293 56.9823 76.392C56.5285 76.2867 56.0012 76.0791 55.4978 75.881C54.778 75.5976 54.1068 75.3335 53.768 75.4147C53.173 75.5572 52.4906 75.4366 51.8876 75.3297C51.3125 75.2278 50.8095 75.1389 50.5234 75.3034C50.1815 75.5 49.89 75.4199 49.4566 75.3012C49.156 75.2189 48.7871 75.1184 48.2857 75.0779C47.7069 75.0312 47.2974 74.8934 46.9493 74.7763C46.4594 74.6114 46.0908 74.4875 45.5414 74.7155C44.9312 74.9689 44.2934 75.1301 43.791 75.0501C43.5623 75.0136 43.3005 75.0225 43.0282 75.0318C42.6677 75.0441 42.2885 75.0568 41.9423 74.9659C41.657 74.891 41.4212 74.6992 41.2126 74.5296C41.1475 74.4766 41.085 74.4261 41.0245 74.3817C40.7973 74.3841 40.57 74.3877 40.3428 74.3934C40.306 74.4243 40.2673 74.4584 40.227 74.4937C40.0244 74.6707 39.7753 74.8877 39.4669 74.9959C38.9789 75.1671 38.5506 75.0599 38.0988 74.9461C37.747 74.8576 37.3811 74.7651 36.9615 74.7982C36.6754 74.8209 36.3496 74.8992 36.0267 74.9769C35.5471 75.0922 35.0735 75.2057 34.7444 75.1335C34.6211 75.1065 34.5151 74.9861 34.4102 74.8663C34.4098 74.8656 34.4093 74.8649 34.4089 74.8641C34.4017 74.856 34.3946 74.8481 34.3875 74.84C33.5861 74.9317 32.7846 75.0329 31.9832 75.1394C31.9137 75.1703 31.8435 75.2009 31.774 75.2309C31.4342 75.3777 31.104 75.5204 30.8887 75.7229C30.6553 75.9424 30.0687 76.07 29.4505 76.2046C29.0457 76.2927 28.6271 76.3837 28.2855 76.5055C28.0857 76.5766 27.8962 76.4526 27.7013 76.3246C27.5194 76.2053 27.3326 76.0828 27.1284 76.1131C27.0262 76.1283 26.9157 76.1796 26.7979 76.2346C26.6941 76.283 26.5844 76.3342 26.4695 76.3656C26.3628 76.3947 26.1251 76.3271 25.8203 76.2412C25.632 76.188 25.418 76.128 25.1933 76.0787C24.5996 76.156 24.0058 76.2301 23.4121 76.299C23.2883 76.4078 23.1808 76.549 23.0957 76.7302C23.0347 76.8602 22.9827 77.0157 22.9293 77.1746C22.8567 77.3908 22.7815 77.6143 22.6779 77.7925C22.597 77.9317 22.5015 77.9872 22.4373 77.9294C22.4075 77.9024 22.3846 77.8516 22.3637 77.8056C22.3399 77.753 22.3186 77.7062 22.2926 77.7075C22.2739 77.7086 22.2544 77.7459 22.2304 77.791C22.1921 77.863 22.1423 77.9561 22.0665 77.9594C21.7844 77.9717 21.4638 77.9419 21.1498 77.9125C20.8005 77.8798 20.4592 77.8481 20.1872 77.8759C19.8826 77.907 19.4484 77.7686 19.0135 77.6307C18.7102 77.5344 18.4064 77.4386 18.1457 77.3993C17.8903 77.3608 17.6243 77.4374 17.3668 77.5121C17.0576 77.6017 16.7603 77.6883 16.5076 77.567C16.4565 77.5423 16.393 77.3923 16.3134 77.2046C16.257 77.0716 16.192 76.9195 16.1181 76.7793C15.7964 76.7793 15.4747 76.7731 15.153 76.7617C15.1417 76.782 15.13 76.8028 15.1183 76.8239C15.1181 76.8244 15.118 76.8249 15.1178 76.8254C14.8536 77.3028 14.492 77.9558 13.9841 77.5662C13.855 77.4672 13.7737 77.2843 13.7005 77.1197C13.6285 76.958 13.5643 76.8133 13.4702 76.7829C13.3633 76.7485 13.2371 76.8477 13.0996 76.9557C12.9065 77.1073 12.6908 77.2766 12.4743 77.1189C12.4595 77.1082 12.4436 77.0964 12.4271 77.0845C12.2702 76.9724 12.0379 76.8064 11.8067 76.4725C11.121 76.3834 10.4352 76.279 9.74941 76.165C8.60633 75.9751 7.46302 75.7585 6.32005 75.542C5.76398 75.4355 5.23068 74.9808 4.83747 74.2528C4.44423 73.5239 4.22327 72.5871 4.22327 71.6181C4.2233 70.6492 4.44426 69.7129 4.83747 68.9841C5.23069 68.2561 5.76396 67.8014 6.32005 67.6949C7.22682 67.5231 8.13388 67.3511 9.04076 67.1927C9.08829 67.1725 9.13603 67.1531 9.18355 67.1348C9.53707 66.999 9.86508 66.7263 10.1933 66.4533C10.2687 66.3905 10.3443 66.3277 10.42 66.2666ZM82.7123 13.2916C82.982 13.5888 83.0274 14.0518 82.997 14.5045C82.9755 14.8069 82.9157 15.1312 82.8711 15.3476C82.8694 15.3575 82.8676 15.3675 82.8658 15.3774C82.8404 15.5061 82.8333 15.6297 82.8255 15.7768C82.8068 16.1162 82.7815 16.5816 82.4793 17.5508C82.4884 17.8298 82.4924 18.1212 82.4905 18.3976C82.4696 21.4519 82.0556 24.498 81.5524 27.5451C81.5543 27.5836 81.5562 27.6228 81.5582 27.6625C81.5958 28.4306 81.641 29.3806 81.4621 29.9749C81.2346 30.7311 81.0258 31.2431 80.8458 31.6633C80.4306 34.0832 80.045 36.5029 79.8362 38.9297C79.7709 39.6869 79.7229 40.4529 79.6963 41.2139C79.6717 41.918 79.6598 42.623 79.6584 43.3253C79.7148 43.6066 79.7798 43.8763 79.8453 44.1319C79.8769 44.2599 79.9087 44.3844 79.9397 44.5051C80.0726 45.0172 80.1883 45.4872 80.2146 45.8582C80.277 46.7716 80.045 47.7905 79.868 48.5443C79.8391 48.6682 79.8117 48.7842 79.7875 48.8907C79.8105 49.5038 79.8355 50.1117 79.8584 50.7257C79.8168 50.7635 79.7736 50.8014 79.7293 50.8396C79.1763 51.3152 79.1333 51.9525 79.0534 52.9521C79.0179 53.3929 78.9758 53.893 78.8787 54.4874C78.8168 54.8626 78.592 55.0474 78.41 55.1853C78.3564 55.2265 78.3059 55.2679 78.2643 55.3089C78.1216 55.4519 78.241 55.6214 78.3802 55.8344C78.5612 56.1065 78.7779 56.4352 78.5052 56.8015C77.6355 57.9665 78.0468 58.5781 78.3599 59.0466C78.4518 59.1817 78.534 59.3085 78.5726 59.4294C78.6978 59.8225 78.4486 60.3215 78.1529 60.6758C78.0349 60.8145 78.0006 61.0549 78.0201 61.309C78.0411 61.5443 78.1152 61.799 78.2088 62.0202C78.2802 62.1903 78.258 62.4029 78.2351 62.6547C78.2115 62.9134 78.1871 63.2176 78.2674 63.5464C78.4723 64.3765 78.5921 64.8132 78.6848 65.1703C78.7116 65.2713 78.7363 65.3674 78.7625 65.4621C78.845 65.7633 78.9154 66.1407 78.9895 66.5365C79.0781 67.009 79.1714 67.5098 79.2905 67.9029C79.2106 68.6178 79.1111 69.3716 78.986 70.1383C78.9904 70.1664 78.9764 70.2521 78.9799 70.2803C78.9163 70.6141 78.8378 71.0023 78.7761 71.219C78.7569 71.2885 78.7272 71.3494 78.6868 71.4124C78.5009 71.6967 78.0912 71.9762 77.4943 72.2252C76.7671 72.5259 75.8257 72.7594 74.8389 72.806C73.8531 72.8522 72.8883 72.6914 72.152 72.2886C71.548 71.9599 71.1457 71.4915 71.0049 70.9791C70.9742 70.8685 70.956 70.7542 70.9499 70.6461C70.9318 70.2839 70.9055 70.066 70.8759 69.8012L70.8708 69.9208C70.7792 69.2584 70.6734 68.5852 70.5782 67.8746C70.4147 66.6615 70.2869 65.3112 70.3506 63.909C70.3938 62.9291 70.5005 61.9396 70.6648 60.9697C70.6816 60.8706 70.6993 60.7709 70.7175 60.6704C70.6954 60.5299 70.6746 60.3892 70.656 60.2473C70.5521 59.6119 70.4706 59.0295 70.4633 58.6074C70.4562 58.1901 70.6251 57.91 70.7688 57.6719C70.8679 57.5066 70.9551 57.3615 70.9647 57.2032C70.9701 57.1164 70.9697 57.0017 70.9693 56.8611C70.9685 56.2839 70.9581 55.3169 71.2874 54.4568C71.433 54.083 71.6864 53.6415 71.9253 53.228C72.2677 52.63 72.582 52.07 72.5268 51.764C72.4292 51.2359 72.5979 50.6446 72.7439 50.1283C72.8836 49.633 73.0036 49.194 72.8565 48.9349C72.681 48.6189 72.7778 48.3734 72.9208 47.9976C73.02 47.7349 73.1402 47.4228 73.2066 46.9808C73.2829 46.4766 73.4401 46.121 73.5734 45.8203C73.7611 45.3902 73.901 45.078 73.6965 44.5783C73.596 44.3374 73.5135 44.0898 73.461 43.8484C73.3942 43.551 73.3758 43.2636 73.4308 43.0141C73.4756 42.8134 73.476 42.5841 73.4762 42.3409C73.4765 42.0158 73.476 41.687 73.5781 41.3801C73.6622 41.1263 73.8609 40.9277 74.0369 40.7476C74.0917 40.6916 74.1441 40.6377 74.1904 40.5853C74.1948 40.3825 74.1979 40.1785 74.1987 39.9779C74.1689 39.9443 74.1358 39.9089 74.1017 39.8719C73.9306 39.6867 73.7207 39.4566 73.6209 39.179C73.4629 38.7435 73.5812 38.3597 73.706 37.9643C73.8032 37.6548 73.9045 37.328 73.881 36.9555C73.8649 36.701 73.794 36.4061 73.7233 36.118C73.6184 35.6892 73.5148 35.2623 73.5934 34.972C73.6229 34.8629 73.7454 34.7711 73.8672 34.6802C73.868 34.6798 73.8687 34.6794 73.8694 34.679C73.8777 34.6728 73.8858 34.6666 73.894 34.6604C73.818 33.9433 73.7315 33.2269 73.6385 32.5101C73.6088 32.4476 73.5794 32.3844 73.5506 32.3218C73.4095 32.016 73.2722 31.7189 73.0731 31.5234C72.8573 31.3119 72.7389 30.7858 72.6133 30.2335C72.531 29.8707 72.4459 29.496 72.3287 29.1905C72.2603 29.0109 72.3868 28.8435 72.5173 28.6716C72.639 28.5111 72.7639 28.3468 72.7361 28.1646C72.7222 28.0728 72.6722 27.9733 72.6188 27.8673C72.5717 27.7739 72.5217 27.6753 72.4917 27.5725C72.4639 27.4765 72.5343 27.2683 72.6238 26.9954C72.6792 26.8275 72.7416 26.6372 72.7935 26.438C72.7228 25.9067 72.6549 25.3794 72.5919 24.8452C72.4843 24.7333 72.3442 24.636 72.1638 24.5583C72.0344 24.5026 71.8795 24.4547 71.7211 24.4056C71.5055 24.3385 71.2828 24.2709 71.1056 24.1754C70.9672 24.1012 70.9126 24.015 70.971 23.9583C70.9982 23.9318 71.0493 23.9119 71.0954 23.8937C71.1483 23.873 71.1953 23.8544 71.1942 23.8312C71.1933 23.8145 71.1562 23.7967 71.1113 23.7748C71.0396 23.7399 70.947 23.6946 70.9444 23.6271C70.9346 23.3776 70.9673 23.0898 70.9993 22.8098C71.035 22.4999 71.0695 22.1956 71.0439 21.9515C71.0152 21.6801 71.157 21.294 71.2982 20.9064C71.3967 20.6391 71.4947 20.366 71.5358 20.1333C71.5761 19.9051 71.5013 19.672 71.4283 19.4373C71.3408 19.157 71.256 18.9019 71.379 18.6701C71.404 18.6242 71.5544 18.5681 71.7426 18.4981C71.876 18.4485 72.0285 18.3916 72.1691 18.3268C72.171 18.0455 72.1792 17.7485 72.1924 17.4648C72.1721 17.4547 72.1515 17.4442 72.1304 17.4337C72.1299 17.4335 72.1294 17.4334 72.1289 17.4332C71.653 17.2015 71.0021 16.8615 71.3944 16.4164C71.4941 16.2995 71.6775 16.2275 71.8425 16.1629C72.0045 16.0994 72.1496 16.0429 72.1805 15.9599C72.2155 15.8658 72.1169 15.755 72.0096 15.6277C71.8591 15.451 71.6908 15.2594 71.8496 15.0697C71.8605 15.0562 71.8723 15.0417 71.8843 15.0266C71.9973 14.8833 72.1644 14.6748 72.4994 14.4755C72.501 14.4653 72.5026 14.455 72.5042 14.4448C72.5958 13.8345 72.702 13.2342 72.8174 12.6331C73.0131 11.6102 73.2355 10.5857 73.4578 9.56608C73.5672 9.06665 74.0246 8.59547 74.7545 8.246C75.4854 7.89729 76.4233 7.70916 77.3922 7.71053C78.3611 7.71861 79.2963 7.91888 80.0232 8.27561C80.7491 8.63343 81.2011 9.10981 81.3048 9.61051C81.472 10.4241 81.6393 11.2387 81.7932 12.0478C81.8131 12.0905 81.8323 12.1338 81.8503 12.1774C81.9843 12.4921 82.2553 12.7934 82.5268 13.0839C82.5891 13.1522 82.6516 13.2214 82.7123 13.2916Z" fill="black"/>
<path d="M32.0426 17.4262C32.6437 17.5117 33.0844 18.2651 33.3384 18.6914C33.343 18.6988 33.3476 18.7063 33.3522 18.7138C33.4101 18.8122 33.4768 18.8968 33.5569 18.9975C33.7479 19.2376 33.9994 19.5548 34.3706 20.3625C34.5452 20.5473 34.7037 20.7201 34.8716 20.9112C34.9175 20.9634 34.9637 21.0163 35.01 21.0696C36.6982 23.0132 38.2064 25.1787 39.6698 27.3822C39.6938 27.4058 39.7182 27.4298 39.743 27.4541C40.2225 27.9254 40.8192 28.5112 41.0655 29.001C41.3724 29.6169 41.5545 30.0741 41.6917 30.4467C42.8858 32.2447 44.1094 34.0219 45.4558 35.6869C45.8777 36.2086 46.3119 36.7193 46.7619 37.2173C47.1754 37.6751 47.5998 38.1263 48.03 38.5676C48.3344 38.7757 48.642 38.9631 48.9243 39.1337C49.3194 39.372 49.678 39.5922 49.9246 39.8081C50.5226 40.3323 51.0135 41.0991 51.3757 41.6668C51.4349 41.7596 51.4889 41.8452 51.5429 41.9273C51.9406 42.2892 52.3314 42.6383 52.732 42.997C52.7309 43.0453 52.7289 43.0948 52.7266 43.1453C52.6947 43.7716 53.0717 44.1847 53.6612 44.8347C53.9153 45.1148 54.2152 45.4465 54.5338 45.8543C54.7355 46.1131 54.7267 46.3672 54.7113 46.5655C54.7073 46.6243 54.7035 46.6794 54.7056 46.7297C54.7137 46.9029 54.8913 46.9268 55.1081 46.9631C55.3899 47.0108 55.7267 47.0664 55.8026 47.449C55.8875 47.8339 55.9995 48.1029 56.1292 48.2941C56.444 48.7521 56.8397 48.7945 57.1819 48.851C57.3238 48.8719 57.4514 48.8902 57.5513 48.934C57.8811 49.0829 58.0607 49.5237 58.1398 49.9356C58.1938 50.2519 58.6764 50.5684 59.1133 50.7669C59.2765 50.8395 59.417 51.0043 59.585 51.2036C59.751 51.4006 59.9534 51.6432 60.2354 51.8509C60.9421 52.369 61.3145 52.6759 61.6205 52.9377C61.7038 53.0074 61.79 53.0855 61.8713 53.1567C62.1366 53.3969 62.4271 53.6826 62.8054 54.1917C62.9686 54.4283 63.1474 54.6419 63.4061 55.2652C63.5133 55.5938 63.7433 56.009 63.6835 57.1319C63.6456 57.7015 63.4113 58.4593 63.0438 59.0134C62.6835 59.5679 62.3543 59.834 62.2939 59.9036C61.4789 60.7876 59.3892 61.0824 58.6564 60.7717C58.2007 60.6533 57.8633 60.4873 57.6043 60.3353C57.338 60.1741 57.2609 60.1109 57.1287 60.0092C56.8985 59.8276 56.7289 59.6532 56.635 59.5536C56.5436 59.4567 56.4715 59.3728 56.4095 59.2979C56.1777 59.0134 56.0926 58.8837 56.0123 58.7788C55.7515 58.2677 55.7013 58.062 55.6114 57.8067C55.5327 57.5668 55.4701 57.3534 55.4123 57.1521C55.2979 56.7513 55.1981 56.3872 55.1168 56.0976C55.0369 55.7979 55.2618 55.4874 55.8188 55.1732C56.0932 55.0102 56.4566 54.8348 56.7521 54.5402C57.0523 54.2466 57.1669 53.8277 57.2216 53.4109C57.2774 52.9955 57.4059 52.5721 57.7799 52.3109C58.1515 52.0507 58.6554 51.9645 59.1149 51.994C60.0451 52.0619 60.7195 52.4568 61.0491 52.9275C61.3804 53.4067 61.6537 53.8418 61.9078 54.2452C62.0338 54.4451 62.1542 54.6372 62.262 54.7982C62.3157 54.8783 62.3657 54.9492 62.4047 54.9951C62.4354 55.0295 62.491 55.0833 62.3958 54.9095C62.3597 54.8524 62.3105 54.7521 62.0864 54.5077C62.0154 54.4328 61.9264 54.3451 61.8027 54.2428C61.6691 54.1386 61.5619 54.0372 61.1817 53.8397C60.8235 53.6667 60.3465 53.4769 59.5994 53.4826C58.7919 53.479 57.8972 53.8763 57.4084 54.3278C57.3962 54.3376 57.1911 54.4908 56.933 54.8405C56.6754 55.1781 56.4395 55.7267 56.3684 56.1374C56.2246 57.0024 56.3693 57.3453 56.4062 57.5545C56.5127 57.9376 56.5274 57.9303 56.517 57.9488C56.4904 57.9468 56.3731 57.7991 56.2528 57.659C56.005 57.3657 55.6994 57 55.405 56.6287C54.9628 56.0714 54.5022 55.4827 54.0473 54.8852C53.9999 54.823 53.9499 54.7572 53.9059 54.6987C53.3361 54.3466 52.7862 53.996 52.4397 53.6971C52.1553 53.4523 52.0671 53.1805 51.9816 52.9366C51.9298 52.7768 51.8819 52.6333 51.7806 52.5309C51.7262 52.476 51.6468 52.4043 51.5495 52.3162C51.544 52.3112 51.5384 52.3062 51.5328 52.3011C51.1542 51.9628 50.4968 51.3668 50.1275 50.646C49.9558 50.3153 49.8185 49.8918 49.6801 49.48C49.4834 48.8925 49.3015 48.348 49.0706 48.1933C48.6713 47.929 48.3833 47.4512 48.1371 47.0387C47.8968 46.6391 47.6905 46.2947 47.4343 46.2201C47.1287 46.1318 47.0224 45.9104 46.8719 45.5904C46.7667 45.3677 46.6336 45.0905 46.3944 44.7726C46.1201 44.4076 45.9891 44.0855 45.8788 43.8129C45.726 43.432 45.6096 43.144 45.1714 42.9498C44.6891 42.739 44.2452 42.4532 44.0308 42.1132C43.933 41.9581 43.7886 41.8095 43.6379 41.6544C43.438 41.4487 43.2292 41.2338 43.1033 40.9781C42.9996 40.7675 42.9961 40.5185 42.993 40.298C42.992 40.2293 42.9907 40.1633 42.987 40.1023C42.8649 39.9704 42.7421 39.839 42.6177 39.7087C42.5786 39.7048 42.5363 39.7017 42.4924 39.6982C42.2722 39.6808 42.0016 39.6589 41.7689 39.5398C41.401 39.3514 41.2414 39.038 41.0736 38.7069C40.9429 38.4492 40.807 38.1807 40.563 37.9532C40.3966 37.7982 40.1735 37.6516 39.9523 37.5061C39.6236 37.2899 39.301 37.0782 39.1709 36.8422C39.1224 36.754 39.1426 36.6223 39.1629 36.4918C39.1631 36.4911 39.1633 36.4904 39.1636 36.4897C39.1649 36.4808 39.1662 36.472 39.1675 36.4632C38.6841 36.0457 38.1912 35.6297 37.6993 35.2215C37.6425 35.1982 37.5856 35.1743 37.5294 35.1505C37.2546 35.034 36.9884 34.9217 36.7455 34.9117C36.4835 34.9023 36.0871 34.6266 35.6741 34.3411C35.4051 34.1558 35.121 33.9573 34.8625 33.8265C34.7111 33.7496 34.6897 33.5671 34.6684 33.3797C34.648 33.2042 34.625 33.0219 34.4971 32.9187C34.4329 32.8669 34.3414 32.8312 34.2439 32.7933C34.158 32.7599 34.0673 32.7248 33.9866 32.6754C33.9122 32.63 33.8287 32.4507 33.7202 32.22C33.6534 32.0777 33.5779 31.9168 33.4907 31.7566C33.1291 31.4535 32.7607 31.1385 32.4049 30.8303C32.2689 30.8183 32.1212 30.8349 31.9601 30.8879C31.8445 30.9259 31.7176 30.9839 31.5877 31.0431C31.4111 31.1237 31.2284 31.2069 31.0598 31.2476C30.9281 31.2794 30.8422 31.2548 30.8454 31.1841C30.8469 31.1511 30.8673 31.1086 30.8857 31.0701C30.9067 31.026 30.9255 30.9868 30.911 30.9723C30.9005 30.9619 30.8664 30.9718 30.8251 30.9836C30.7594 31.0029 30.6723 31.0251 30.6295 30.9816C30.4696 30.8187 30.3177 30.6106 30.1715 30.4091C30.0107 30.1871 29.842 29.9572 29.6818 29.8132C29.5028 29.6526 29.357 29.3104 29.2147 28.9722C29.117 28.738 29.0174 28.502 28.9019 28.3209C28.7893 28.144 28.6032 28.0327 28.4182 27.9198C28.1923 27.7802 27.9788 27.6503 27.9255 27.4321C27.9179 27.4007 27.9477 27.33 27.9943 27.2369C28.0128 27.1983 28.0341 27.1559 28.0567 27.1109C28.1119 27.001 28.175 26.8753 28.2258 26.7511C28.0525 26.5539 27.8978 26.3698 27.7312 26.1651C27.712 26.1697 27.6925 26.1742 27.6726 26.1791C27.6722 26.1792 27.6717 26.1794 27.6713 26.1796C27.2192 26.2847 26.6234 26.4544 26.5977 25.9181C26.5933 25.7843 26.669 25.6327 26.7372 25.4964C26.8042 25.3626 26.8644 25.2431 26.836 25.1711C26.8039 25.0895 26.6693 25.0649 26.5275 25.0432C26.3266 25.0108 26.1093 24.9827 26.0964 24.7624C26.0953 24.7472 26.0944 24.7308 26.0932 24.7139C26.0812 24.554 26.0658 24.32 26.164 23.9971C25.8551 23.5264 25.5758 23.0687 25.2844 22.5831C24.8093 21.7853 24.3501 20.9681 23.8952 20.1415C23.669 19.7315 23.6859 19.1425 23.9571 18.4827C24.0934 18.1529 24.286 17.8186 24.5321 17.5054C24.7816 17.2184 25.0518 16.791 25.4991 16.8308C26.1848 16.2654 26.814 15.8375 27.4844 15.6625C28.1383 15.4812 28.6899 15.5354 29.037 15.8052C29.5958 16.2392 30.1675 16.6789 30.7368 17.1306C30.7733 17.1465 30.8097 17.1631 30.8454 17.1805C31.115 17.3146 31.4565 17.3519 31.8059 17.3976C31.8875 17.4095 31.9648 17.4165 32.0426 17.4262Z" fill="black"/>
<path d="M54.5636 16.6887C53.9446 16.7884 53.4697 17.5691 53.196 18.0111C53.1911 18.0188 53.1861 18.0266 53.1812 18.0344C53.1184 18.1368 53.0472 18.2252 52.9616 18.3303C52.7597 18.5786 52.4922 18.9086 52.0832 19.7475C51.9013 19.9371 51.7307 20.1205 51.5526 20.3196C51.5135 20.3633 51.4743 20.4074 51.4349 20.4518C49.6306 22.487 48.0055 24.7489 46.4261 27.0488C46.4007 27.0734 46.3749 27.0985 46.3487 27.1239C45.841 27.6174 45.2119 28.228 44.9431 28.7356C44.6086 29.3731 44.4072 29.8456 44.2539 30.2309C42.971 32.0985 41.66 33.9436 40.2264 35.6765C39.7768 36.2199 39.3165 36.7504 38.8388 37.2703C38.4011 37.7466 37.9506 38.2183 37.4967 38.6778C37.1764 38.8986 36.8574 39.0941 36.5629 39.2741C36.1485 39.5278 35.7767 39.7574 35.5172 39.9832C34.8866 40.5331 34.3585 41.3293 33.9711 41.9163C33.9084 42.0116 33.8461 42.105 33.7896 42.1887C33.3736 42.5639 32.9573 42.9344 32.539 43.306C32.5386 43.3555 32.5391 43.4062 32.5399 43.4579C32.5465 44.1064 32.1556 44.5279 31.527 45.2101C31.2621 45.4976 30.9366 45.852 30.6027 46.2705C30.3783 46.5504 30.3879 46.8016 30.396 47.0061C30.3984 47.0663 30.4007 47.1225 30.3971 47.174C30.386 47.349 30.197 47.3839 29.9746 47.4243C29.6843 47.4788 29.3503 47.528 29.2479 47.9364C29.1775 48.2232 29.0943 48.4473 29.0015 48.6238C28.6557 49.2653 28.182 49.3339 27.7956 49.3973C27.6503 49.4208 27.5246 49.4357 27.4164 49.4879C27.0704 49.6513 26.8672 50.1139 26.7821 50.5287C26.7173 50.8542 26.2073 51.1963 25.7616 51.4005C25.5962 51.4738 25.4363 51.6592 25.2674 51.8571C25.079 52.078 24.8706 52.3248 24.5818 52.5378C23.8408 53.0903 23.45 53.419 23.129 53.7007C23.0377 53.781 22.9533 53.857 22.8641 53.9396C22.5807 54.2134 22.2812 54.4859 21.8286 55.1887C21.6858 55.442 21.5011 55.6832 21.294 56.45C21.2065 56.8571 21.0533 57.4993 21.3291 58.5397C21.6049 59.6057 22.4333 60.3926 22.5032 60.4609C23.2653 61.2294 24.6598 61.5689 25.3103 61.5029C25.971 61.4779 26.414 61.3236 26.7323 61.1952C27.1805 61.01 27.4639 60.8095 27.5986 60.7187C27.9085 60.4996 28.0318 60.387 28.1574 60.2819C28.3768 60.0949 28.4986 59.9872 28.6152 59.8902C29.3854 58.8022 29.6878 58.1218 30.0731 57.4772C30.2525 57.161 30.1412 56.7473 29.7463 56.2658C29.3507 55.8021 28.7076 55.14 28.6835 54.268C28.6755 53.4004 27.8561 52.716 26.9739 52.6209C26.1038 52.4983 25.3845 52.7155 24.9618 53.105C24.15 53.8482 23.3511 54.7312 22.9495 55.0256C22.9363 55.0283 22.9226 55.0231 23.0169 54.9245C23.073 54.8725 23.1234 54.8049 23.4066 54.6178C23.4832 54.569 23.5761 54.5141 23.6956 54.4546C23.7996 54.4036 23.9935 54.3109 24.2902 54.2296C24.6005 54.1532 24.9118 54.0762 25.5307 54.1299C26.1728 54.1833 26.9756 54.5184 27.4979 55.014C27.5091 55.0231 27.6854 55.1634 27.9136 55.471C28.1434 55.7748 28.3702 56.2474 28.4618 56.6685C28.6373 57.5178 28.5004 57.9178 28.4623 58.1394C28.3497 58.5711 28.3219 58.5755 28.3248 58.607C28.3356 58.6269 28.442 58.4883 28.5544 58.356C28.7895 58.0732 29.0781 57.7273 29.3636 57.3701C29.8307 56.7864 30.3177 56.1742 30.7999 55.5525C30.8491 55.4891 30.899 55.4244 30.9498 55.3588C31.5344 54.9963 32.1283 54.6023 32.4789 54.3041C32.7837 54.0404 32.8768 53.7661 32.9707 53.5155C33.0361 53.3422 33.0877 53.1962 33.1929 53.0911C33.2494 53.0346 33.3318 52.961 33.4327 52.8703C33.4865 52.822 33.5456 52.7689 33.6089 52.711C34.0096 52.3488 34.588 51.7876 34.9456 51.1248C35.1269 50.7877 35.2905 50.3402 35.4408 49.9201C35.6674 49.3064 35.8618 48.7546 36.108 48.5865C36.525 48.3084 36.8385 47.8094 37.1014 47.3844C37.3575 46.9731 37.5853 46.61 37.8475 46.5317C38.1621 46.4369 38.2784 46.2075 38.4445 45.8747C38.5595 45.6441 38.702 45.3603 38.9601 45.0267C39.2532 44.6469 39.3962 44.3158 39.519 44.033C39.6901 43.637 39.8167 43.3415 40.2714 43.1348C40.7743 42.9076 41.234 42.6109 41.4671 42.2556C41.5722 42.0948 41.7248 41.9399 41.884 41.7783C42.0948 41.5643 42.317 41.3386 42.4538 41.0745C42.5669 40.8564 42.5788 40.6007 42.5894 40.3742C42.5927 40.3036 42.596 40.2359 42.6022 40.173C42.7321 40.0347 42.8616 39.8983 42.9933 39.7623C43.0335 39.7577 43.0768 39.7538 43.1218 39.7496C43.3475 39.7281 43.6249 39.7014 43.8671 39.575C44.25 39.3753 44.4235 39.0509 44.6064 38.708C44.7488 38.4411 44.8969 38.163 45.1542 37.9252C45.3297 37.7631 45.5625 37.6093 45.7938 37.4561C46.1373 37.2287 46.4751 37.0051 46.6153 36.7613C46.668 36.6699 46.6519 36.5349 46.6355 36.4011C46.6353 36.4004 46.6351 36.3997 46.6349 36.3989C46.6338 36.3899 46.6328 36.3809 46.6317 36.3718C47.1409 35.9344 47.6583 35.4998 48.1756 35.072C48.234 35.0476 48.2929 35.0222 48.3514 34.9967C48.6365 34.8724 48.9127 34.7525 49.1617 34.7382C49.4305 34.7236 49.8438 34.4356 50.2767 34.1346C50.5589 33.9389 50.8543 33.7324 51.1239 33.5929C51.2815 33.5114 51.3097 33.3234 51.338 33.1302C51.3635 32.9511 51.3937 32.7628 51.5281 32.6546C51.5956 32.6003 51.6904 32.5619 51.7915 32.5213C51.8806 32.4855 51.9746 32.4479 52.0589 32.3958C52.1373 32.3471 52.2264 32.1641 52.3461 31.9242C52.4193 31.7768 52.5022 31.6101 52.597 31.4438C52.9743 31.1295 53.3661 30.795 53.7377 30.4756C53.8773 30.4609 54.0278 30.4755 54.1909 30.5272C54.3078 30.5644 54.4357 30.6219 54.5665 30.6806C54.7445 30.7605 54.9285 30.843 55.0997 30.8819C55.2334 30.9124 55.3221 30.8857 55.3213 30.813C55.3209 30.7791 55.3015 30.7357 55.2841 30.6964C55.264 30.6514 55.2462 30.6114 55.2616 30.5962C55.2727 30.5854 55.3072 30.595 55.3491 30.6064C55.4163 30.6243 55.5017 30.6489 55.5478 30.6026C55.7171 30.4323 55.8798 30.2156 56.0365 30.0059C56.207 29.7767 56.3878 29.537 56.5568 29.3862C56.7464 29.2169 56.9042 28.8661 57.0625 28.5147C57.1716 28.271 57.2783 28.0303 57.4037 27.8409C57.5245 27.6576 57.7213 27.5371 57.911 27.4218C58.147 27.2742 58.37 27.1368 58.4322 26.9114C58.444 26.8682 58.3904 26.7544 58.32 26.6104C58.316 26.6019 58.3119 26.5933 58.3078 26.5845C58.2552 26.4723 58.1951 26.344 58.1474 26.217C58.3312 26.0115 58.4983 25.8166 58.6726 25.6067C58.6921 25.6111 58.712 25.6155 58.7321 25.6201C58.7326 25.6203 58.733 25.6204 58.7334 25.6206C59.1921 25.7213 59.7971 25.884 59.8397 25.3344C59.8489 25.1965 59.7768 25.0418 59.7118 24.9026C59.6479 24.7659 59.5905 24.6439 59.6221 24.5693C59.6556 24.4872 59.7952 24.4584 59.9409 24.4339C60.1471 24.3975 60.3723 24.3627 60.3905 24.1387C60.3921 24.123 60.3936 24.1061 60.3955 24.0887C60.4134 23.9238 60.4374 23.6826 60.3483 23.3517C60.6791 22.8637 60.9796 22.3889 61.2942 21.8843C61.8051 21.058 62.3029 20.2088 62.7943 19.3522C63.038 18.9282 63.0404 18.3223 62.7847 17.6484C62.6563 17.3114 62.4705 16.9705 62.2297 16.652C61.9852 16.3591 61.72 15.9294 61.2727 15.9612C60.5933 15.3916 59.9618 14.965 59.2831 14.7964C58.6208 14.6216 58.0544 14.6877 57.691 14.9708C57.1041 15.4281 56.5044 15.8904 55.9083 16.3632C55.8704 16.3802 55.8326 16.3979 55.7955 16.4165C55.5143 16.5601 55.1655 16.6023 54.8058 16.6562C54.7213 16.6706 54.6441 16.6766 54.5636 16.6887Z" fill="black"/>
</svg>
